<svg width="67" height="58" viewBox="0 0 67 58" fill="none" xmlns="http://www.w3.org/2000/svg">
<ellipse cx="35.2572" cy="28.2144" rx="30.8571" ry="27.7248" fill="#9D8189" fill-opacity="0.9"/>
<g clip-path="url(#clip0_55_101)">
<path d="M66 29C66 21.3087 62.5232 13.9325 56.3345 8.4939C50.1458 3.05535 41.7521 0 33 0C24.2479 0 15.8542 3.05535 9.66548 8.4939C3.47678 13.9325 0 21.3087 0 29C0 36.6913 3.47678 44.0675 9.66548 49.5061C15.8542 54.9447 24.2479 58 33 58C41.7521 58 50.1458 54.9447 56.3345 49.5061C62.5232 44.0675 66 36.6913 66 29ZM34.9336 15.293C36.1453 14.2281 38.1047 14.2281 39.3035 15.293C40.5023 16.3578 40.5152 18.0797 39.3035 19.1332L28.0887 28.9887L39.3035 38.8441C40.5152 39.909 40.5152 41.6309 39.3035 42.6844C38.0918 43.7379 36.1324 43.7492 34.9336 42.6844L21.5273 30.9258C20.3156 29.8609 20.3156 28.1391 21.5273 27.0855L34.9336 15.293Z" fill="black"/>
</g>
<defs>
<clipPath id="clip0_55_101">
<rect width="66" height="58" fill="white"/>
</clipPath>
</defs>
</svg>
