<svg width="67" height="58" viewBox="0 0 67 58" fill="none" xmlns="http://www.w3.org/2000/svg">
<ellipse cx="30.8571" cy="28.7248" rx="30.8571" ry="27.7248" fill="#9D8189" fill-opacity="0.9"/>
<g clip-path="url(#clip0_144_4)">
<path d="M0 29C0 36.6913 3.52945 44.0675 9.81192 49.5061C16.0944 54.9447 24.6152 58 33.5 58C42.3848 58 50.9056 54.9447 57.1881 49.5061C63.4705 44.0675 67 36.6913 67 29C67 21.3087 63.4705 13.9325 57.1881 8.4939C50.9056 3.05535 42.3848 0 33.5 0C24.6152 0 16.0944 3.05535 9.81192 8.4939C3.52945 13.9325 0 21.3087 0 29ZM31.5371 42.707C30.307 43.7719 28.318 43.7719 27.101 42.707C25.884 41.6422 25.8709 39.9203 27.101 38.8668L38.4857 29.0113L27.101 19.1559C25.8709 18.091 25.8709 16.3691 27.101 15.3156C28.3311 14.2621 30.3201 14.2508 31.5371 15.3156L45.1465 27.0742C46.3766 28.1391 46.3766 29.8609 45.1465 30.9145L31.5371 42.707Z" fill="black"/>
</g>
<defs>
<clipPath id="clip0_144_4">
<rect width="67" height="58" fill="white"/>
</clipPath>
</defs>
</svg>
